<svg xmlns="http://www.w3.org/2000/svg" width="256" height="256"><linearGradient id="a" x1="291.791" x2="291.791" y1="-178.132" y2="-30.651" gradientTransform="matrix(1 0 0 -1 -178 -11)" gradientUnits="userSpaceOnUse"><stop offset="0" stop-color="#f9aa2d"/><stop offset="1" stop-color="#e09115"/></linearGradient><path fill="url(#a)" d="M214.889 151.663c0 8.508-6.961 15.47-15.47 15.47H28.159c-8.507 0-15.468-6.962-15.468-15.47V35.117c0-8.506 6.961-15.466 15.468-15.466h171.26c8.509 0 15.47 6.96 15.47 15.466v116.546z"/><linearGradient id="b" x1="291.794" x2="291.794" y1="-46.029" y2="-167.367" gradientTransform="matrix(1 0 0 -1 -178 -11)" gradientUnits="userSpaceOnUse"><stop offset="0" stop-color="#97671b"/><stop offset="1" stop-color="#7e520c"/></linearGradient><path fill="url(#b)" d="M204.291 147.229c0 8.51-6.962 15.471-15.469 15.471H38.766c-8.509 0-15.47-6.961-15.47-15.471V46.147c0-8.507 6.961-15.468 15.47-15.468h150.057c8.507 0 15.469 6.961 15.469 15.468l-.001 101.082z"/><linearGradient id="c" x1="294.744" x2="294.744" y1="-223.195" y2="-209.216" gradientTransform="matrix(1 0 0 -1 -178 -11)" gradientUnits="userSpaceOnUse"><stop offset="0" stop-color="#f9aa2d"/><stop offset="1" stop-color="#e09115"/></linearGradient><path fill="url(#c)" d="M64.07 198.217h106.026l-.677 13.979H63.39l.68-13.979z"/><linearGradient id="d" x1="346.162" x2="346.162" y1="-246.336" y2="-180.65" gradientTransform="matrix(1 0 0 -1 -178 -11)" gradientUnits="userSpaceOnUse"><stop offset="0" stop-color="#f9aa2d"/><stop offset="1" stop-color="#e09115"/></linearGradient><path fill="url(#d)" d="M157.824 173.33c-1.559-2.023-4.922-3.678-7.475-3.68h-15.033c-2.551-.002-3.362 1.652-1.803 3.675l44.98 58.335c1.561 2.021 4.922 3.677 7.477 3.677H201c2.555 0 3.366-1.653 1.811-3.677l-44.987-58.33z"/><linearGradient id="e" x1="238.777" x2="238.777" y1="-246.336" y2="-180.65" gradientTransform="matrix(1 0 0 -1 -178 -11)" gradientUnits="userSpaceOnUse"><stop offset="0" stop-color="#f9aa2d"/><stop offset="1" stop-color="#e09115"/></linearGradient><path fill="url(#e)" d="M95.424 173.325c1.561-2.021.749-3.675-1.805-3.675H78.588c-2.552 0-5.915 1.654-7.474 3.675L26.13 231.663c-1.56 2.021-.747 3.674 1.806 3.674l15.03-.001c2.555-.003 5.918-1.656 7.477-3.677l44.981-58.334z"/><linearGradient id="f" x1="292.807" x2="292.807" y1="-166.287" y2="-187.248" gradientTransform="matrix(1 0 0 -1 -178 -11)" gradientUnits="userSpaceOnUse"><stop offset="0" stop-color="#f9aa2d"/><stop offset="1" stop-color="#e09115"/></linearGradient><path fill="url(#f)" d="M1 159.924a4.65 4.65 0 0 1 4.641-4.638h218.332a4.651 4.651 0 0 1 4.641 4.638v11.684a4.653 4.653 0 0 1-4.641 4.64H5.641A4.653 4.653 0 0 1 1 171.608v-11.684z"/><path fill="#2C2C2C" d="M223.973 173.085H5.641A4.653 4.653 0 0 1 1 168.443v3.162a4.653 4.653 0 0 0 4.641 4.641h218.332a4.653 4.653 0 0 0 4.641-4.641v-3.162a4.656 4.656 0 0 1-4.641 4.642zM64.932 91.527c-1.943 1.511-3.823 2.647-5.642 3.404-1.816.756-3.853 1.133-6.112 1.133-2.061 0-3.873-.408-5.434-1.223-1.561-.815-2.765-1.92-3.608-3.314a8.587 8.587 0 0 1-1.268-4.537c0-2.2.697-4.075 2.092-5.626 1.396-1.551 3.31-2.591 5.743-3.123.513-.117 1.777-.383 3.801-.795 2.024-.412 3.757-.79 5.198-1.134a97.515 97.515 0 0 0 4.699-1.252c-.098-2.121-.523-3.678-1.28-4.668-.756-.992-2.322-1.489-4.696-1.489-2.046 0-3.582.286-4.612.855-1.031.569-1.916 1.423-2.652 2.562-.736 1.139-1.255 1.892-1.559 2.253-.308.364-.959.546-1.962.546-.903 0-1.683-.29-2.341-.871-.658-.58-.986-1.321-.986-2.224 0-1.414.501-2.788 1.501-4.123 1.003-1.335 2.563-2.436 4.687-3.3 2.119-.864 4.76-1.296 7.925-1.296 3.533 0 6.31.418 8.335 1.253 2.021.835 3.45 2.155 4.285 3.961.833 1.807 1.252 4.203 1.252 7.188 0 1.884-.004 3.485-.016 4.802-.01 1.315-.025 2.778-.043 4.389 0 1.514.25 3.088.751 4.728.5 1.639.749 2.695.749 3.167 0 .824-.386 1.575-1.162 2.254-.776.676-1.653 1.016-2.635 1.016-.828 0-1.642-.389-2.445-1.164-.809-.774-1.662-1.898-2.565-3.372zm-.531-11.635c-1.178.431-2.892.889-5.141 1.369-2.249.481-3.805.835-4.668 1.062-.864.226-1.689.667-2.476 1.325-.784.658-1.178 1.574-1.178 2.753 0 1.218.462 2.254 1.385 3.109.923.854 2.13 1.281 3.623 1.281 1.59 0 3.059-.349 4.405-1.046 1.343-.695 2.33-1.596 2.96-2.695.726-1.216 1.089-3.22 1.089-6.009l.001-1.149zm44.671-26.37v12.284c1.511-1.571 3.052-2.772 4.624-3.609 1.568-.833 3.515-1.25 5.834-1.25 2.67 0 5.012.633 7.024 1.898 2.012 1.267 3.573 3.104 4.684 5.509 1.109 2.407 1.664 5.259 1.664 8.556 0 2.436-.31 4.671-.928 6.702-.617 2.035-1.517 3.796-2.695 5.289a12.16 12.16 0 0 1-4.285 3.46c-1.68.815-3.531 1.224-5.553 1.224-1.237 0-2.401-.15-3.492-.443-1.089-.293-2.018-.682-2.782-1.164a12.533 12.533 0 0 1-1.962-1.488c-.538-.509-1.25-1.275-2.133-2.297v.796c0 1.513-.364 2.655-1.093 3.43-.725.776-1.647 1.166-2.768 1.166-1.14 0-2.047-.389-2.725-1.166-.678-.775-1.016-1.917-1.016-3.43V53.877c0-1.63.327-2.862.986-3.698.659-.833 1.576-1.25 2.754-1.25 1.237 0 2.19.397 2.858 1.192.669.796 1.004 1.929 1.004 3.401zm.381 23.891c0 3.203.733 5.662 2.195 7.379 1.463 1.72 3.382 2.578 5.761 2.578 2.021 0 3.765-.878 5.227-2.637 1.463-1.756 2.194-4.275 2.194-7.556 0-2.123-.304-3.947-.913-5.481-.608-1.531-1.472-2.712-2.591-3.547-1.12-.835-2.426-1.253-3.917-1.253-1.531 0-2.899.418-4.096 1.253-1.199.835-2.141 2.043-2.829 3.623-.688 1.581-1.031 3.461-1.031 5.641zm69.182 27.93c0 1.003-.302 2.073-.898 3.211-.6 1.141-1.514 2.226-2.74 3.257-1.227 1.031-2.773 1.86-4.639 2.488-1.864.628-3.967.941-6.305.941-4.967 0-8.848-1.448-11.635-4.344-2.788-2.897-4.184-6.779-4.184-11.651 0-3.3.639-6.216 1.914-8.749 1.275-2.533 3.123-4.492 5.537-5.876 2.416-1.385 5.303-2.076 8.66-2.076 2.082 0 3.993.306 5.729.912 1.739.61 3.211 1.394 4.419 2.357 1.207.963 2.13 1.988 2.77 3.078.639 1.09.957 2.105.957 3.05 0 .962-.359 1.777-1.076 2.445-.715.667-1.584 1-2.604 1-.67 0-1.224-.171-1.664-.516-.442-.342-.938-.898-1.489-1.664-.979-1.491-2.009-2.612-3.078-3.359-1.07-.747-2.43-1.118-4.08-1.118-2.375 0-4.289.926-5.74 2.782-1.456 1.855-2.184 4.395-2.184 7.616 0 1.513.188 2.902.561 4.167.371 1.266.912 2.347 1.623 3.24a6.912 6.912 0 0 0 2.561 2.033c1.004.463 2.102.692 3.299.692 1.609 0 2.991-.371 4.141-1.118 1.146-.747 2.164-1.886 3.049-3.417.49-.903 1.021-1.61 1.59-2.121.568-.509 1.268-.766 2.091-.766.985 0 1.8.372 2.445 1.119.646.748.97 1.544.97 2.387z" opacity=".1"/><linearGradient id="g" x1="220.868" x2="251.738" y1="-88.75" y2="-88.75" gradientTransform="matrix(1 0 0 -1 -178 -11)" gradientUnits="userSpaceOnUse"><stop offset="0" stop-color="#54bdf1"/><stop offset="1" stop-color="#3aa5d9"/></linearGradient><path fill="url(#g)" d="M64.932 89.59c-1.943 1.513-3.823 2.647-5.642 3.402-1.816.756-3.853 1.135-6.112 1.135-2.061 0-3.873-.408-5.434-1.223-1.561-.813-2.765-1.919-3.608-3.314a8.578 8.578 0 0 1-1.268-4.535c0-2.2.697-4.075 2.092-5.628 1.396-1.55 3.31-2.59 5.743-3.121.513-.117 1.777-.383 3.801-.796 2.023-.411 3.757-.789 5.198-1.133a97.44 97.44 0 0 0 4.699-1.251c-.098-2.123-.523-3.679-1.28-4.669-.756-.991-2.322-1.488-4.696-1.488-2.046 0-3.582.284-4.612.855-1.031.569-1.916 1.423-2.652 2.562-.736 1.139-1.255 1.89-1.559 2.254-.308.363-.959.545-1.962.545-.903 0-1.683-.291-2.341-.869-.658-.578-.986-1.321-.986-2.224 0-1.414.501-2.79 1.501-4.125 1.003-1.335 2.563-2.434 4.687-3.299 2.119-.864 4.76-1.296 7.925-1.296 3.533 0 6.31.417 8.335 1.252 2.021.835 3.45 2.156 4.285 3.962.833 1.808 1.252 4.205 1.252 7.187 0 1.886-.004 3.487-.016 4.802-.01 1.316-.025 2.78-.043 4.39 0 1.511.25 3.089.751 4.728.5 1.64.749 2.695.749 3.166 0 .826-.386 1.576-1.162 2.253-.776.678-1.653 1.016-2.635 1.016-.828 0-1.642-.388-2.445-1.163-.809-.777-1.662-1.903-2.565-3.375zm-.531-11.636c-1.178.432-2.892.889-5.141 1.371s-3.805.835-4.668 1.061c-.864.227-1.689.668-2.476 1.326-.784.657-1.178 1.576-1.178 2.753 0 1.218.462 2.254 1.385 3.109.923.852 2.13 1.281 3.623 1.281 1.59 0 3.059-.349 4.405-1.046 1.343-.698 2.33-1.596 2.96-2.695.726-1.218 1.089-3.22 1.089-6.011l.001-1.149z"/><linearGradient id="h" x1="279.471" x2="310.902" y1="-80.319" y2="-80.319" gradientTransform="matrix(1 0 0 -1 -178 -11)" gradientUnits="userSpaceOnUse"><stop offset="0" stop-color="#fed52f"/><stop offset="1" stop-color="#f2c719"/></linearGradient><path fill="url(#h)" d="M109.072 51.587v12.284c1.511-1.571 3.052-2.772 4.624-3.609 1.568-.833 3.515-1.252 5.834-1.252 2.67 0 5.012.635 7.024 1.9 2.012 1.267 3.573 3.103 4.684 5.509 1.109 2.407 1.664 5.256 1.664 8.556 0 2.436-.31 4.669-.928 6.702-.617 2.033-1.517 3.796-2.695 5.289a12.171 12.171 0 0 1-4.285 3.46c-1.68.815-3.531 1.223-5.553 1.223-1.237 0-2.401-.148-3.492-.441-1.089-.296-2.018-.683-2.782-1.164a12.533 12.533 0 0 1-1.962-1.488c-.538-.51-1.25-1.275-2.133-2.297v.796c0 1.511-.364 2.655-1.093 3.43-.725.775-1.647 1.164-2.768 1.164-1.14 0-2.047-.389-2.725-1.164-.678-.775-1.016-1.918-1.016-3.43V51.94c0-1.63.327-2.863.986-3.697.659-.835 1.576-1.253 2.754-1.253 1.237 0 2.19.398 2.858 1.194.669.794 1.004 1.93 1.004 3.403zm.381 23.89c0 3.202.733 5.661 2.195 7.38 1.463 1.717 3.382 2.578 5.761 2.578 2.021 0 3.765-.88 5.227-2.637 1.463-1.758 2.194-4.275 2.194-7.557 0-2.121-.304-3.945-.913-5.48-.608-1.531-1.472-2.713-2.591-3.548-1.12-.835-2.426-1.252-3.917-1.252-1.531 0-2.899.417-4.096 1.252-1.199.835-2.141 2.042-2.829 3.623s-1.031 3.461-1.031 5.641z"/><linearGradient id="i" x1="326.234" x2="356.635" y1="-107.957" y2="-107.957" gradientTransform="matrix(1 0 0 -1 -178 -11)" gradientUnits="userSpaceOnUse"><stop offset="0" stop-color="#f15454"/><stop offset="1" stop-color="#d93b3b"/></linearGradient><path fill="url(#i)" d="M178.635 103.408c0 1.002-.302 2.071-.898 3.21-.6 1.139-1.514 2.225-2.74 3.256-1.227 1.031-2.773 1.861-4.639 2.49-1.864.626-3.967.941-6.305.941-4.967 0-8.848-1.448-11.635-4.345-2.788-2.896-4.184-6.779-4.184-11.649 0-3.3.639-6.214 1.914-8.749 1.275-2.534 3.123-4.492 5.537-5.878 2.416-1.383 5.303-2.076 8.66-2.076 2.082 0 3.993.304 5.729.914 1.739.609 3.211 1.394 4.419 2.355 1.207.963 2.13 1.988 2.77 3.08.639 1.089.957 2.105.957 3.048 0 .961-.359 1.778-1.076 2.445-.715.668-1.584 1.002-2.604 1.002-.67 0-1.224-.173-1.664-.516-.442-.343-.938-.9-1.489-1.664-.979-1.494-2.009-2.611-3.078-3.358-1.07-.746-2.43-1.121-4.08-1.121-2.375 0-4.289.93-5.74 2.785-1.456 1.857-2.184 4.395-2.184 7.616 0 1.511.188 2.902.561 4.167.371 1.268.912 2.346 1.623 3.242a6.917 6.917 0 0 0 2.561 2.031c1.004.46 2.102.691 3.299.691 1.609 0 2.991-.374 4.141-1.119 1.146-.745 2.164-1.884 3.049-3.416.49-.905 1.021-1.612 1.59-2.123.568-.511 1.268-.764 2.091-.764.985 0 1.8.372 2.445 1.118.646.748.97 1.542.97 2.387z"/><path fill="#2C2C2C" d="M13 124.887v18.353l44.299-27.402 11.537-16.135-21.822 1.936z" opacity=".1"/><linearGradient id="j" x1="242.131" x2="213.378" y1="-112.181" y2="-129.155" gradientTransform="matrix(1 0 0 -1 -178 -11)" gradientUnits="userSpaceOnUse"><stop offset="0" stop-color="#54bdf1"/><stop offset="1" stop-color="#3aa5d9"/></linearGradient><path fill="url(#j)" d="m2.297 130.967 44.524-30.328 21.938-1.936-11.614 16.135-47.104 29.036s-10.971-5.81-7.744-12.907z"/><path fill="#FFF" d="m4.317 135.915 41.791-28.469 18.089-4.584-18.089 1.815-41.791 28.47c-.616 1.353-.661 2.654-.375 3.875a6.66 6.66 0 0 1 .375-1.107z" opacity=".2"/><linearGradient id="k" x1="361.901" x2="361.901" y1="-109.414" y2="-210.715" gradientTransform="matrix(1 0 0 -1 -178 -11)" gradientUnits="userSpaceOnUse"><stop offset="0" stop-color="#cc7eec"/><stop offset="1" stop-color="#b465d5"/></linearGradient><path fill="url(#k)" d="M232.523 213.109a5.028 5.028 0 0 1-5.014 5.014h-87.217c-2.758 0-5.012-2.255-5.012-5.014V106.344c0-2.758 2.254-5.014 5.012-5.014h87.217a5.028 5.028 0 0 1 5.014 5.014v106.765z"/><path fill="#2C2C2C" d="M158.704 101.33H141.16a5.028 5.028 0 0 0-5.014 5.014V213.11a5.028 5.028 0 0 0 5.014 5.015h17.544V101.33z" opacity=".2"/><linearGradient id="l" x1="324.56" x2="324.56" y1="-111.274" y2="-226.582" gradientTransform="matrix(1 0 0 -1 -178 -11)" gradientUnits="userSpaceOnUse"><stop offset="0" stop-color="#8f58a5"/><stop offset="1" stop-color="#78438e"/></linearGradient><path fill="url(#l)" d="M157.839 101.33h-17.545c-2.758 0-5.012 2.255-5.012 5.014V213.11c0 2.76 2.254 5.015 5.012 5.015h17.545V101.33z"/><path fill="#2C2C2C" d="M227.512 216.188h-87.218a5.025 5.025 0 0 1-5.012-5.014v1.936c0 2.76 2.254 5.015 5.012 5.015h87.218a5.03 5.03 0 0 0 5.014-5.015v-1.936c-.003 2.76-2.258 5.014-5.014 5.014z" opacity=".1"/><linearGradient id="m" x1="393.261" x2="393.261" y1="-130.557" y2="-243.113" gradientTransform="matrix(1 0 0 -1 -178 -11)" gradientUnits="userSpaceOnUse"><stop offset="0" stop-color="#5ae050"/><stop offset="1" stop-color="#40d437"/></linearGradient><path fill="url(#m)" d="M255 231.338c0 2.758-2.255 5.012-5.014 5.012h-74.463V119.557h74.463a5.028 5.028 0 0 1 5.014 5.014v106.767z"/><path fill="#2C2C2C" d="M181.18 119.557h-17.541c-2.761 0-5.016 2.257-5.016 5.014v106.768c0 2.757 2.255 5.013 5.016 5.013h17.541V119.557z" opacity=".2"/><linearGradient id="n" x1="347.033" x2="347.033" y1="-123.861" y2="-248.104" gradientTransform="matrix(1 0 0 -1 -178 -11)" gradientUnits="userSpaceOnUse"><stop offset="0" stop-color="#3e9937"/><stop offset="1" stop-color="#2b8d25"/></linearGradient><path fill="url(#n)" d="M180.312 119.557h-17.545c-2.754 0-5.011 2.257-5.011 5.014v106.768c0 2.757 2.257 5.013 5.011 5.013h17.545V119.557z"/><path fill="#2C2C2C" d="M249.986 234.414h-87.219c-2.754 0-5.011-2.257-5.011-5.014v1.938c0 2.758 2.257 5.012 5.011 5.012h87.219c2.759 0 5.014-2.255 5.014-5.012V229.4a5.028 5.028 0 0 1-5.014 5.014z" opacity=".1"/></svg>