<svg xmlns="http://www.w3.org/2000/svg" width="24" height="24" fill="none" viewBox="0 0 24 24"><path fill="#5E94FF" d="M5 5.25C3.48122 5.25 2.25 6.48122 2.25 8V16C2.25 17.5188 3.48122 18.75 5 18.75H15C16.5188 18.75 17.75 17.5188 17.75 16V8C17.75 6.48122 16.5188 5.25 15 5.25H5Z"/><path fill="#5E94FF" d="M21.75 7.20711C21.75 6.09348 20.4036 5.53577 19.6161 6.32323L16.4697 9.46968C16.329 9.61033 16.25 9.80109 16.25 10V14C16.25 14.1989 16.329 14.3897 16.4697 14.5303L19.6161 17.6768C20.4036 18.4642 21.75 17.9065 21.75 16.7929V7.20711Z"/><path fill="#ECEFF1" d="M15.0303 12.5303L15.0268 12.5338L15.0197 12.5409L14.9947 12.5653C14.9735 12.5861 14.943 12.6154 14.9041 12.6523C14.8263 12.7259 14.7144 12.8294 14.5743 12.953C14.2951 13.1994 13.8997 13.529 13.4359 13.8603C12.5511 14.4923 11.2562 15.25 10 15.25C8.74383 15.25 7.44887 14.4923 6.56407 13.8603C6.10032 13.529 5.70489 13.1994 5.42566 12.953C5.28562 12.8294 5.17373 12.7259 5.09593 12.6523C5.057 12.6154 5.02653 12.5861 5.00526 12.5653L4.98031 12.5409L4.97317 12.5338L4.97096 12.5316L4.96967 12.5303"/><path fill="#ECEFF1" d="M15.0303 12.5303L15.0268 12.5338L15.0197 12.5409L14.9947 12.5653C14.9735 12.5861 14.943 12.6154 14.9041 12.6523C14.8263 12.7259 14.7144 12.8294 14.5743 12.953C14.2951 13.1994 13.8997 13.529 13.4359 13.8603C12.5511 14.4923 11.2562 15.25 10 15.25C8.74383 15.25 7.44887 14.4923 6.56407 13.8603C6.10032 13.529 5.70489 13.1994 5.42566 12.953C5.28562 12.8294 5.17373 12.7259 5.09593 12.6523C5.057 12.6154 5.02653 12.5861 5.00526 12.5653L4.98031 12.5409L4.97317 12.5338L4.97096 12.5316L4.96967 12.5303C4.67678 12.2374 4.67678 11.7626 4.96967 11.4697L4.97096 11.4684L4.97317 11.4662L4.98031 11.4591L5.00526 11.4347C5.02653 11.4139 5.057 11.3846 5.09593 11.3477C5.17373 11.2741 5.28562 11.1706 5.42566 11.047C5.70489 10.8006 6.10032 10.471 6.56407 10.1397C7.44887 9.5077 8.74383 8.75 10 8.75C11.2562 8.75 12.5511 9.5077 13.4359 10.1397C13.8997 10.471 14.2951 10.8006 14.5743 11.047C14.7144 11.1706 14.8263 11.2741 14.9041 11.3477C14.943 11.3846 14.9735 11.4139 14.9947 11.4347L15.0197 11.4591L15.0268 11.4662L15.029 11.4684L15.0303 11.4697C15.3232 11.7626 15.3232 12.2374 15.0303 12.5303Z"/><path fill="#5485E5" fill-rule="evenodd" d="M21.75 12H16.25V14C16.25 14.1989 16.329 14.3897 16.4697 14.5303L19.6161 17.6768C20.4036 18.4642 21.75 17.9065 21.75 16.7929V12Z" clip-rule="evenodd"/><path fill="#5485E5" fill-rule="evenodd" d="M17.75 12H2.25V16C2.25 17.5188 3.48122 18.75 5 18.75H15C16.5188 18.75 17.75 17.5188 17.75 16V12Z" clip-rule="evenodd"/><path fill="#D4D6D8" fill-rule="evenodd" d="M15.0268 12.5338L15.0303 12.5303C15.1768 12.3839 15.25 12.1919 15.25 12H4.75C4.75 12.1919 4.82322 12.3839 4.96967 12.5303L4.97096 12.5316L4.97317 12.5338L4.98031 12.5409L5.00526 12.5653C5.02653 12.5861 5.057 12.6154 5.09593 12.6523C5.17373 12.7259 5.28562 12.8294 5.42566 12.953C5.70489 13.1994 6.10032 13.529 6.56407 13.8603C7.44887 14.4923 8.74383 15.25 10 15.25C11.2562 15.25 12.5511 14.4923 13.4359 13.8603C13.8997 13.529 14.2951 13.1994 14.5743 12.953C14.7144 12.8294 14.8263 12.7259 14.9041 12.6523C14.943 12.6154 14.9735 12.5861 14.9947 12.5653L15.0197 12.5409L15.0268 12.5338Z" clip-rule="evenodd"/></svg>